HIERARCHY
ROOT Hips
{
  OFFSET 3.92544 6.39728 0
  CHANNELS 6 Xposition Yposition Zposition Zrotation Xrotation Yrotation
  JOINT BN_Spine_01
  {
    OFFSET 5.06197 -0.168311 0
    CHANNELS 6 Xposition Yposition Zposition Zrotation Xrotation Yrotation
    JOINT BN_Spine_02
    {
      OFFSET 14.8952 0 0
      CHANNELS 6 Xposition Yposition Zposition Zrotation Xrotation Yrotation
      JOINT BN_Spine_03
      {
        OFFSET 14.3786 0 0
        CHANNELS 6 Xposition Yposition Zposition Zrotation Xrotation Yrotation
        JOINT BN__Neck_01
        {
          OFFSET 15.3325 0 0
          CHANNELS 6 Xposition Yposition Zposition Zrotation Xrotation Yrotation
          JOINT BN__Neck_02
          {
            OFFSET 11.0839 0 0
            CHANNELS 6 Xposition Yposition Zposition Zrotation Xrotation Yrotation
            JOINT BN__Neck_R_01
            {
              OFFSET 3.85383 1.1973 3.491
              CHANNELS 6 Xposition Yposition Zposition Zrotation Xrotation Yrotation
              End Site
              {
                OFFSET 0 0 0
              }
            }
            JOINT BN__Neck_L_01
            {
              OFFSET 3.85383 1.1973 -3.49098
              CHANNELS 6 Xposition Yposition Zposition Zrotation Xrotation Yrotation
              End Site
              {
                OFFSET 0 0 0
              }
            }
            JOINT BN_Head_01
            {
              OFFSET 9.67523 0 0
              CHANNELS 6 Xposition Yposition Zposition Zrotation Xrotation Yrotation
              JOINT BN_Mouth_01
              {
                OFFSET 1.08197 -0.588672 0
                CHANNELS 6 Xposition Yposition Zposition Zrotation Xrotation Yrotation
                JOINT BN_Tongue_01
                {
                  OFFSET 2.17792 0.065941 0
                  CHANNELS 6 Xposition Yposition Zposition Zrotation Xrotation Yrotation
                  JOINT BN_Tongue_02
                  {
                    OFFSET 3.80658 -0.000201226 0
                    CHANNELS 6 Xposition Yposition Zposition Zrotation Xrotation Yrotation
                    End Site
                    {
                      OFFSET 0 0 0
                    }
                  }
                }
              }
            }
          }
        }
      }
    }
  }
  JOINT BN_Tail_01
  {
    OFFSET 4.67587 -0.164094 0
    CHANNELS 6 Xposition Yposition Zposition Zrotation Xrotation Yrotation
    JOINT BN_Tail_02
    {
      OFFSET 13.1147 2.52724e-005 0
      CHANNELS 6 Xposition Yposition Zposition Zrotation Xrotation Yrotation
      JOINT BN_Tail_03
      {
        OFFSET 13.4995 9.10759e-005 0
        CHANNELS 6 Xposition Yposition Zposition Zrotation Xrotation Yrotation
        JOINT BN_Tail_04
        {
          OFFSET 13.2851 0 0
          CHANNELS 6 Xposition Yposition Zposition Zrotation Xrotation Yrotation
          JOINT BN_Tail_05
          {
            OFFSET 14.6528 0.000106812 0
            CHANNELS 6 Xposition Yposition Zposition Zrotation Xrotation Yrotation
            JOINT BN_Tail_06
            {
              OFFSET 13.1048 0 0
              CHANNELS 6 Xposition Yposition Zposition Zrotation Xrotation Yrotation
              JOINT BN_Tail_07
              {
                OFFSET 11.869 0.000113964 0
                CHANNELS 6 Xposition Yposition Zposition Zrotation Xrotation Yrotation
                End Site
                {
                  OFFSET 0 0 0
                }
              }
            }
          }
        }
      }
    }
  }
}
MOTION
Frames:	7
Frame Time:	0.0333333
3.92544 3.97237 0 5.37303 -0.00150975 6.97349e-005 5.06197 -0.168311 7.27596e-012 8.05712 -2.57312 38.1669 14.8952 2.38419e-007 -9.53674e-007 60.4342 -31.2512 -29.9225 14.3786 -3.55272e-015 0 39.7966 1.73661 -19.1999 15.3325 0 -9.53674e-007 -23.5911 -12.3223 27.3101 11.0839 3.55272e-015 5.55112e-017 -67.743 0.0838765 2.30986 4.53921 1.45961 3.83302 -87.314 -13.6049 -72.5979 4.48717 1.45926 -3.07319 93.2246 -18.421 99.6847 9.67523 0 2.22045e-016 -40.1931 0.767002 0.753579 1.08197 -0.588671 0 -0.867303 -3.04939e-009 -2.28063e-009 3.18259 0.278405 -2.98023e-008 2.34676 -9.96435e-009 -2.53905e-008 5.10923 0.673201 2.98023e-008 19.773 1.96989e-008 -2.51818e-008 4.67587 -0.164094 7.27596e-012 179.124 0.690896 -11.246 13.1147 0 1.19209e-007 -5.53061 -0.888465 18.9548 13.4995 2.38419e-007 -2.38419e-007 -2.80222 5.77867 29.3357 13.2851 1.19209e-007 -5.72205e-006 -1.61903 -1.7475 48.3943 14.6528 -6.66134e-016 -3.8147e-006 -1.68247 -1.96963 45.7249 13.1048 -1.19209e-007 0 1.12464 0.863626 26.0834 11.869 2.38419e-007 -7.6294e-006 -1.34861 5.924 -23.3681 
2.42282 3.97237 1.05811e-013 5.37303 -0.00150975 6.97349e-005 5.06197 -0.168311 7.27596e-012 1.66316 -2.2864 49.9836 14.8952 2.38419e-007 -9.53674e-007 48.07 -34.4478 -41.649 14.3786 1.95399e-014 1.77636e-015 51.4827 2.13112 -17.7079 15.3325 -2.13163e-014 -9.53674e-007 -8.16917 -5.95873 21.6693 11.0839 7.10544e-015 -2.66454e-015 -66.4388 1.43873 4.28472 4.51264 1.49389 3.72254 -87.3493 -13.4767 -72.5704 4.45132 1.47721 -2.96159 93.2061 -18.2338 99.7554 9.67523 1.42109e-014 -3.10862e-015 -49.3755 0.809425 4.55336 1.08197 -0.588671 8.67205e-009 -12.4448 6.33703e-008 -1.59244e-007 3.1233 0.266391 -3.3986e-008 11.2944 0.00274619 4.73112 5.50908 0.0443002 2.8074e-008 -19.2649 -0.00104409 15.7899 4.67587 -0.164094 7.27596e-012 178.897 0.0280258 -21.2422 13.1147 1.33227e-015 1.19209e-007 -5.64366 -1.42722 33.7678 13.4995 2.38419e-007 -2.38419e-007 -2.32341 5.95741 25.9307 13.2851 1.19209e-007 -5.72205e-006 -1.23861 -1.7321 44.0004 14.6528 7.08322e-014 -3.8147e-006 -1.61335 -2.13312 40.5384 13.1048 -1.19209e-007 -7.10543e-015 0.502051 1.9076 36.1356 11.869 2.38419e-007 -7.6294e-006 -4.45688 7.31642 -1.12227 
0.167853 3.97237 5.63189e-013 5.37303 -0.00150975 6.97349e-005 5.06197 -0.168311 7.27596e-012 -4.34393 -2.36836 57.1832 14.8952 2.38419e-007 -9.53674e-007 38.704 -34.471 -49.8213 14.3786 8.88179e-015 -3.55271e-015 65.4008 2.86799 -18.8125 15.3325 -7.10544e-015 -9.53674e-007 10.6452 4.55962 14.5425 11.0839 3.55272e-015 -1.77636e-015 -63.5051 3.22229 6.8049 4.44054 1.58685 3.42297 -87.4512 -13.1151 -72.5026 4.35408 1.52594 -2.65897 93.1531 -17.733 99.9328 9.67523 -1.42109e-014 2.22045e-015 -57.0054 0.85365 7.90662 1.08197 -0.588671 -1.43063e-008 -23.7975 7.47003e-007 1.58903e-006 2.97907 0.236145 -2.77942e-008 20.0679 0.0020221 9.37536 5.90116 -0.572402 3.2361e-009 -57.5493 0.000809584 31.2766 4.67587 -0.164094 7.27596e-012 178.422 -0.548071 -29.7277 13.1147 2.66454e-015 1.19209e-007 -5.42369 -1.69688 44.6848 13.4995 2.38419e-007 -2.38419e-007 -1.68952 6.05336 23.5654 13.2851 1.19209e-007 -5.72205e-006 -0.855625 -1.68831 39.6956 14.6528 1.54987e-013 -3.8147e-006 -0.869427 -2.23128 35.4526 13.1048 -1.19209e-007 7.10543e-015 -0.163213 2.80473 42.176 11.869 2.38419e-007 -7.6294e-006 -7.59104 7.33205 19.1835 
-1.48224 3.97237 1.09422e-014 5.37303 -0.00150975 6.97349e-005 5.06197 -0.168311 7.27596e-012 -1.15691 -3.7823 55.064 14.8952 2.38419e-007 -9.53674e-007 35.0613 -34.2301 -54.0504 14.3786 1.06581e-014 1.77636e-015 69.7766 4.20002 -26.2615 15.3325 -1.77636e-014 -9.53674e-007 14.0336 9.04779 11.4848 11.0839 1.06582e-014 1.77636e-015 -58.5906 3.71573 7.78389 4.32804 1.73191 2.95542 -87.6128 -12.5549 -72.4087 4.20233 1.60197 -2.18665 93.0647 -16.9498 100.184 9.67523 -1.42109e-014 3.33067e-015 -56.0039 -0.0816649 7.68214 1.08197 -0.588671 -2.56668e-008 -21.7854 -6.33124e-007 2.95185e-006 2.77955 0.194306 -2.00722e-008 19.2146 0.00169501 8.39922 5.6699 -0.546476 -1.19648e-008 -53.337 -0.000848098 26.6795 4.67587 -0.164094 7.27596e-012 178.143 -0.546022 -30.0244 13.1147 7.10543e-015 1.19209e-007 -5.37355 -1.6808 43.8421 13.4995 2.38419e-007 -2.38419e-007 -1.16798 5.94021 23.8847 13.2851 1.19209e-007 -5.72205e-006 -0.879354 -1.67495 40.2983 14.6528 1.62315e-013 -3.8147e-006 0.4291 -1.78502 36.8673 13.1048 -1.19209e-007 -1.42109e-014 -0.197135 3.14803 41.3421 11.869 2.38419e-007 -7.6294e-006 -7.94984 7.35449 17.804 
-3.1813 3.97237 4.13541e-013 5.37303 -0.00150975 6.97349e-005 5.06197 -0.168311 7.27596e-012 4.44666 -6.40388 49.6684 14.8952 2.38419e-007 -9.53674e-007 33.9631 -35.3322 -55.1759 14.3786 1.06581e-014 3.55271e-015 72.9566 5.45375 -36.3341 15.3325 -1.06582e-014 -9.53674e-007 12.8559 9.58551 10.2324 11.0839 0 -8.88178e-016 -51.4406 3.47407 7.87935 4.18139 1.92102 2.34591 -87.8247 -11.8424 -72.3132 4.00449 1.70109 -1.57093 92.9314 -15.939 100.443 9.67523 -5.32908e-015 3.55271e-015 -53.4669 -2.37422 7.06029 1.08197 -0.588671 -1.54495e-008 -16.9358 -5.06744e-006 9.95606e-006 2.56211 0.148284 -2.16454e-008 17.1515 0.00100963 6.04817 5.11199 -0.481336 7.69646e-009 -42.7958 -0.00232264 15.5822 4.67587 -0.164094 7.27596e-012 177.854 -0.542388 -30.2541 13.1147 6.21725e-015 1.19209e-007 -5.22832 -1.62944 41.4508 13.4995 2.38419e-007 -2.38419e-007 -0.60054 5.67248 24.6616 13.2851 1.19209e-007 -5.72205e-006 -0.958349 -1.65222 41.7483 14.6528 2.01172e-013 -3.8147e-006 1.49472 -0.816794 40.417 13.1048 -1.19209e-007 1.42109e-014 -0.0745148 3.35443 39.3086 11.869 2.38419e-007 -7.6294e-006 -8.10057 7.38933 14.4745 
-4.76402 3.97237 2.89206e-013 5.37303 -0.00150975 6.97349e-005 5.06197 -0.168311 7.27596e-012 10.0182 -9.78397 42.8124 14.8952 2.38419e-007 -9.53674e-007 34.7406 -37.3796 -54.1428 14.3786 6.21725e-015 1.77636e-015 75.3052 6.08016 -46.3113 15.3325 -1.06582e-014 -9.53674e-007 9.23217 8.39998 10.1897 11.0839 0 1.77636e-015 -43.7197 2.7759 7.16217 4.0128 2.13841 1.64527 -88.0761 -11.0233 -72.2395 3.77708 1.81503 -0.863142 92.7663 -14.7745 100.664 9.67523 -2.66454e-015 6.21725e-015 -50.2375 -5.15108 6.16539 1.08197 -0.588671 -4.15302e-010 -11.2685 -1.05516e-006 1.92227e-008 2.36455 0.10685 -2.82955e-008 14.7453 -6.0962e-005 3.29757 4.46024 -0.39958 2.80569e-008 -29.665 -0.00246594 2.6188 4.67587 -0.164094 7.27596e-012 177.541 -0.537142 -30.4137 13.1147 4.44089e-015 1.19209e-007 -4.99753 -1.53026 37.8673 13.4995 2.38419e-007 -2.38419e-007 0.0531751 5.29978 25.5663 13.2851 1.19209e-007 -5.72205e-006 -1.07713 -1.63386 43.4459 14.6528 2.58904e-013 -3.8147e-006 2.29773 0.309262 44.8696 13.1048 -1.19209e-007 -7.10543e-015 0.130948 3.52845 36.9289 11.869 2.38419e-007 -7.6294e-006 -8.12411 7.39326 10.5866 
-6.1591 3.97237 7.46779e-013 5.37303 -0.00150975 6.97349e-005 5.06197 -0.168311 7.27596e-012 13.865 -13.1374 35.7801 14.8952 2.38419e-007 -9.53674e-007 36.895 -39.867 -51.6209 14.3786 5.32907e-015 0 76.9399 6.06356 -54.2659 15.3325 -1.06582e-014 -9.53674e-007 5.41219 6.82924 10.298 11.0839 -7.10544e-015 0 -37.1198 1.8546 5.62724 3.82449 2.38123 0.862693 -88.355 -10.1368 -72.195 3.52307 1.9423 -0.0725723 92.562 -13.4985 100.807 9.67524 -1.24345e-014 6.21725e-015 -46.937 -7.69462 5.04276 1.08197 -0.588671 4.31334e-009 -6.47319 -9.17798e-008 -4.22596e-008 2.21889 0.0763043 -3.08615e-008 12.7072 0.00293163 0.974386 3.90878 -0.318904 3.06929e-008 -16.9026 0.00124177 -8.34403 4.67587 -0.164094 7.27596e-012 177.165 -0.528617 -30.5093 13.1147 8.88178e-016 1.19209e-007 -4.67 -1.36895 33.2366 13.4995 2.38419e-007 -2.38419e-007 0.853374 4.84842 26.3262 13.2851 1.19209e-007 -5.72205e-006 -1.24435 -1.64156 44.8824 14.6528 3.00648e-013 -3.8147e-006 2.96052 1.35665 49.2313 13.1048 -1.19209e-007 7.10543e-015 0.37026 3.81256 34.9227 11.869 2.38419e-007 -7.6294e-006 -8.0892 7.36904 7.29902 
